<svg width="40" height="39" viewBox="0 0 40 39" fill="none" xmlns="http://www.w3.org/2000/svg">
<rect width="40" height="39" rx="10" fill="#333333"/>
<path d="M28.6364 17.9318H21.8182V11.1136C21.8182 10.3609 21.2073 9.75 20.4545 9.75H19.5455C18.7927 9.75 18.1818 10.3609 18.1818 11.1136V17.9318H11.3636C10.6109 17.9318 10 18.5427 10 19.2955V20.2045C10 20.9573 10.6109 21.5682 11.3636 21.5682H18.1818V28.3864C18.1818 29.1391 18.7927 29.75 19.5455 29.75H20.4545C21.2073 29.75 21.8182 29.1391 21.8182 28.3864V21.5682H28.6364C29.3891 21.5682 30 20.9573 30 20.2045V19.2955C30 18.5427 29.3891 17.9318 28.6364 17.9318Z" fill="white"/>
</svg>
